<svg width="16" height="13" viewBox="0 0 16 13" fill="none" xmlns="http://www.w3.org/2000/svg">
<path fill-rule="evenodd" clip-rule="evenodd" d="M15.969 1.53032C15.3794 1.78718 14.7498 1.96205 14.0852 2.04108C14.7618 1.63899 15.2824 1.00375 15.5273 0.246985C14.8937 0.612523 14.1911 0.879266 13.4436 1.02746C12.846 0.395176 11.9945 0 11.0491 0C9.23823 0 7.76914 1.45227 7.76914 3.24044C7.76914 3.49731 7.79913 3.74429 7.85409 3.9814C5.12779 3.85297 2.71031 2.55876 1.09232 0.602643C0.808495 1.07784 0.648595 1.63109 0.648595 2.23373C0.648595 3.35998 1.22823 4.35089 2.10768 4.93278C1.57002 4.91599 1.06334 4.76977 0.621611 4.52773V4.56725C0.621611 6.13807 1.75091 7.45005 3.25297 7.74841C2.97714 7.82152 2.68732 7.86104 2.38851 7.86104C2.17864 7.86104 1.97876 7.84128 1.77889 7.80374C2.19863 9.09201 3.40787 10.0296 4.84697 10.0562C3.72767 10.9256 2.30856 11.4433 0.779513 11.4433C0.519675 11.4433 0.259838 11.4285 0 11.3988C1.45909 12.3176 3.17801 12.8551 5.03685 12.8551C11.0731 12.8551 14.371 7.91537 14.371 3.63759C14.371 3.49928 14.371 3.36097 14.361 3.22266C15.0006 2.76821 15.5603 2.1952 16 1.54316L15.969 1.53032Z" fill="#383232"/>
</svg>
