<svg width="16" height="12" viewBox="0 0 16 12" fill="none" xmlns="http://www.w3.org/2000/svg">
<path fill-rule="evenodd" clip-rule="evenodd" d="M0 4.96354C0 3.68435 0.16 2.40318 0.16 2.40318C0.16 2.40318 0.316 1.31577 0.796 0.834341C1.404 0.204631 2.204 0.224402 2.56 0.158169C3.84 0.035588 8 0 8 0C8 0 11.362 0.00395423 13.6 0.1641C13.914 0.201665 14.596 0.203643 15.204 0.834341C15.684 1.31478 15.84 2.40417 15.84 2.40417C15.84 2.40417 16 3.68336 16 4.96453V6.20813C16 7.4893 15.84 8.76849 15.84 8.76849C15.84 8.76849 15.684 9.85788 15.204 10.3383C14.596 10.969 13.914 10.971 13.6 11.0086C11.362 11.1687 8 11.1727 8 11.1727C8 11.1727 3.84 11.1361 2.56 11.0145C2.204 10.9483 1.404 10.968 0.796 10.3383C0.316 9.85689 0.16 8.76948 0.16 8.76948C0.16 8.76948 0 7.4893 0 6.20912V4.96354ZM6.348 7.6623V3.21874L10.671 5.44793L6.351 7.6623H6.348Z" fill="#383232"/>
</svg>
