<svg width="16" height="16" viewBox="0 0 16 16" fill="none" xmlns="http://www.w3.org/2000/svg">
<path fill-rule="evenodd" clip-rule="evenodd" d="M15.117 0H0.883C0.395 0 0 0.39048 0 0.872895V14.944C0 15.4264 0.395 15.8169 0.883 15.8169H8.546V9.69181H6.46V7.30543H8.546V5.54283C8.546 3.50048 9.808 2.38934 11.652 2.38934C12.535 2.38934 13.294 2.45261 13.515 2.48226V4.61755H12.235C11.235 4.61755 11.04 5.09205 11.04 5.78404V7.30642H13.43L13.12 9.69873H11.04V15.8169H15.117C15.605 15.8169 16 15.4264 16 14.944V0.872895C16 0.39048 15.605 0 15.117 0Z" fill="#383232"/>
</svg>
