<svg width="16" height="16" viewBox="0 0 16 16" fill="none" xmlns="http://www.w3.org/2000/svg">
<path fill-rule="evenodd" clip-rule="evenodd" d="M8 0C5.827 0 5.555 0.00988556 4.702 0.0474507C3.85 0.086993 3.27 0.21946 2.76 0.415194C2.234 0.616859 1.787 0.887723 1.343 1.32763C0.898 1.76655 0.623 2.20745 0.42 2.72842C0.222 3.23258 0.087 3.80594 0.048 4.64819C0.008 5.49143 0 5.76032 0 7.90845C0 10.0566 0.01 10.3255 0.048 11.1687C0.088 12.011 0.222 12.5853 0.42 13.0885C0.624 13.6085 0.898 14.0504 1.343 14.4893C1.787 14.9292 2.233 15.201 2.76 15.4017C3.27 15.5974 3.85 15.7309 4.702 15.7694C5.555 15.809 5.827 15.8169 8 15.8169C10.173 15.8169 10.445 15.807 11.298 15.7694C12.15 15.7299 12.731 15.5974 13.24 15.4017C13.766 15.2 14.213 14.9292 14.657 14.4893C15.102 14.0504 15.377 13.6095 15.58 13.0885C15.778 12.5843 15.913 12.011 15.952 11.1687C15.992 10.3255 16 10.0566 16 7.90845C16 5.76032 15.99 5.49143 15.952 4.64819C15.912 3.80594 15.778 3.23159 15.58 2.72842C15.376 2.20843 15.102 1.76655 14.657 1.32763C14.213 0.887723 13.767 0.615871 13.24 0.415194C12.73 0.21946 12.15 0.0860044 11.298 0.0474507C10.445 0.00790845 10.173 0 8 0ZM8 1.42352C10.136 1.42352 10.39 1.43341 11.233 1.47097C12.013 1.50656 12.436 1.63507 12.718 1.74381C13.092 1.88715 13.358 2.05817 13.638 2.33497C13.918 2.61177 14.091 2.87472 14.236 3.24444C14.346 3.52321 14.476 3.94137 14.512 4.71245C14.55 5.54679 14.559 5.79689 14.559 7.90845C14.559 10.02 14.549 10.2711 14.509 11.1045C14.469 11.8755 14.339 12.2937 14.229 12.5725C14.079 12.9422 13.909 13.2051 13.629 13.4819C13.349 13.7587 13.079 13.9297 12.709 14.0731C12.429 14.1818 11.999 14.3103 11.219 14.3459C10.369 14.3835 10.119 14.3924 7.979 14.3924C5.839 14.3924 5.589 14.3825 4.739 14.343C3.959 14.3034 3.529 14.1749 3.249 14.0662C2.869 13.9179 2.609 13.7498 2.329 13.473C2.049 13.1962 1.869 12.9293 1.729 12.5636C1.619 12.2868 1.489 11.8617 1.449 11.0906C1.419 10.2602 1.409 10.0032 1.409 7.89758C1.409 5.79195 1.419 5.53493 1.449 4.69465C1.489 3.92358 1.619 3.4985 1.729 3.22171C1.869 2.84605 2.049 2.58903 2.329 2.31223C2.609 2.03544 2.869 1.8575 3.249 1.7191C3.529 1.61036 3.949 1.48185 4.729 1.4423C5.579 1.41265 5.829 1.40276 7.969 1.40276L8 1.42352ZM8 3.84746C5.73 3.84746 3.892 5.6664 3.892 7.90845C3.892 10.1525 5.732 11.9694 8 11.9694C10.27 11.9694 12.108 10.1505 12.108 7.90845C12.108 5.66443 10.268 3.84746 8 3.84746ZM8 10.5449C6.527 10.5449 5.333 9.36459 5.333 7.90845C5.333 6.45231 6.527 5.27197 8 5.27197C9.473 5.27197 10.667 6.45231 10.667 7.90845C10.667 9.36459 9.473 10.5449 8 10.5449ZM13.23 3.68731C13.23 4.21125 12.8 4.63633 12.27 4.63633C11.74 4.63633 11.31 4.21125 11.31 3.68731C11.31 3.16338 11.74 2.7383 12.27 2.7383C12.8 2.7383 13.23 3.16338 13.23 3.68731Z" fill="#383232"/>
</svg>
